<?xml version="1.0" encoding="UTF-8"?>
<svg xmlns="http://www.w3.org/2000/svg" xmlns:xlink="http://www.w3.org/1999/xlink" viewBox="0 0 150 150" width="150px" height="150px">
<g id="surface190263833">
<path style=" stroke:none;fill-rule:nonzero;fill:rgb(90.196079%,0%,13.725491%);fill-opacity:1;" d="M 75 15 C 41.863281 15 15 41.863281 15 75 C 15 100.421875 30.816406 122.128906 53.136719 130.871094 C 52.609375 126.125 52.136719 118.839844 53.34375 113.660156 C 54.433594 108.980469 60.378906 83.835938 60.378906 83.835938 C 60.378906 83.835938 58.585938 80.238281 58.585938 74.929688 C 58.585938 66.585938 63.421875 60.359375 69.441406 60.359375 C 74.558594 60.359375 77.03125 64.203125 77.03125 68.808594 C 77.03125 73.960938 73.753906 81.65625 72.058594 88.785156 C 70.644531 94.761719 75.054688 99.628906 80.945312 99.628906 C 91.609375 99.628906 99.804688 88.386719 99.804688 72.15625 C 99.804688 57.789062 89.484375 47.746094 74.746094 47.746094 C 57.675781 47.746094 47.65625 60.550781 47.65625 73.785156 C 47.65625 78.941406 49.640625 84.46875 52.121094 87.480469 C 52.609375 88.074219 52.679688 88.59375 52.535156 89.199219 C 52.078125 91.09375 51.070312 95.171875 50.871094 96.003906 C 50.609375 97.105469 50 97.335938 48.863281 96.804688 C 41.371094 93.316406 36.683594 82.359375 36.683594 73.558594 C 36.683594 54.636719 50.433594 37.25 76.328125 37.25 C 97.144531 37.25 113.320312 52.078125 113.320312 71.90625 C 113.320312 92.585938 100.28125 109.226562 82.183594 109.226562 C 76.105469 109.226562 70.390625 106.066406 68.433594 102.335938 C 68.433594 102.335938 65.425781 113.789062 64.695312 116.601562 C 63.339844 121.808594 59.683594 128.34375 57.234375 132.328125 C 62.851562 134.058594 68.816406 135 75 135 C 108.136719 135 135 108.136719 135 75 C 135 41.863281 108.136719 15 75 15 Z M 75 15 "/>
</g>
</svg>
